solid OpenSCAD_Model
  facet normal -0.827081 -0.562082 0
    outer loop
      vertex -72.8115 -52.9007 -5
      vertex -75.9895 -48.2244 5
      vertex -75.9895 -48.2244 -5
    endloop
  endfacet
  facet normal -0.827081 -0.562082 0
    outer loop
      vertex -75.9895 -48.2244 5
      vertex -72.8115 -52.9007 -5
      vertex -72.8115 -52.9007 5
    endloop
  endfacet
  facet normal -0.562082 -0.827081 0
    outer loop
      vertex -52.9007 -72.8115 -5
      vertex -48.2244 -75.9895 5
      vertex -52.9007 -72.8115 5
    endloop
  endfacet
  facet normal -0.562082 -0.827081 -0
    outer loop
      vertex -48.2244 -75.9895 5
      vertex -52.9007 -72.8115 -5
      vertex -48.2244 -75.9895 -5
    endloop
  endfacet
  facet normal -0.995562 -0.0941113 0
    outer loop
      vertex -89.2903 -11.28 -5
      vertex -89.8224 -5.65115 5
      vertex -89.8224 -5.65115 -5
    endloop
  endfacet
  facet normal -0.995562 -0.0941113 0
    outer loop
      vertex -89.8224 -5.65115 5
      vertex -89.2903 -11.28 -5
      vertex -89.2903 -11.28 5
    endloop
  endfacet
  facet normal -0.975916 -0.218148 0
    outer loop
      vertex -87.1725 -22.3821 -5
      vertex -88.4059 -16.8643 5
      vertex -88.4059 -16.8643 -5
    endloop
  endfacet
  facet normal -0.975916 -0.218148 0
    outer loop
      vertex -88.4059 -16.8643 5
      vertex -87.1725 -22.3821 -5
      vertex -87.1725 -22.3821 5
    endloop
  endfacet
  facet normal -0.338736 -0.940881 0
    outer loop
      vertex -33.1312 -83.6799 -5
      vertex -27.8115 -85.5951 5
      vertex -33.1312 -83.6799 5
    endloop
  endfacet
  facet normal -0.338736 -0.940881 -0
    outer loop
      vertex -27.8115 -85.5951 5
      vertex -33.1312 -83.6799 -5
      vertex -27.8115 -85.5951 -5
    endloop
  endfacet
  facet normal -0.999507 -0.0314117 0
    outer loop
      vertex -89.8224 -5.65115 -5
      vertex -90 0 5
      vertex -90 0 -5
    endloop
  endfacet
  facet normal -0.999507 -0.0314117 0
    outer loop
      vertex -90 0 5
      vertex -89.8224 -5.65115 -5
      vertex -89.8224 -5.65115 5
    endloop
  endfacet
  facet normal -0.156423 -0.98769 0
    outer loop
      vertex -16.8643 -88.4059 -5
      vertex -11.28 -89.2903 5
      vertex -16.8643 -88.4059 5
    endloop
  endfacet
  facet normal -0.156423 -0.98769 -0
    outer loop
      vertex -11.28 -89.2903 5
      vertex -16.8643 -88.4059 -5
      vertex -11.28 -89.2903 -5
    endloop
  endfacet
  facet normal -0.891009 -0.453985 0
    outer loop
      vertex -78.8676 -43.3578 -5
      vertex -81.4344 -38.3201 5
      vertex -81.4344 -38.3201 -5
    endloop
  endfacet
  facet normal -0.891009 -0.453985 0
    outer loop
      vertex -81.4344 -38.3201 5
      vertex -78.8676 -43.3578 -5
      vertex -78.8676 -43.3578 5
    endloop
  endfacet
  facet normal -0.940881 -0.338736 0
    outer loop
      vertex -83.6799 -33.1312 -5
      vertex -85.5951 -27.8115 5
      vertex -85.5951 -27.8115 -5
    endloop
  endfacet
  facet normal -0.940881 -0.338736 0
    outer loop
      vertex -85.5951 -27.8115 5
      vertex -83.6799 -33.1312 -5
      vertex -83.6799 -33.1312 5
    endloop
  endfacet
  facet normal -0.0314117 -0.999507 0
    outer loop
      vertex -5.65115 -89.8224 -5
      vertex 0 -90 5
      vertex -5.65115 -89.8224 5
    endloop
  endfacet
  facet normal -0.0314117 -0.999507 -0
    outer loop
      vertex 0 -90 5
      vertex -5.65115 -89.8224 -5
      vertex 0 -90 -5
    endloop
  endfacet
  facet normal -0.790159 -0.612902 0
    outer loop
      vertex -69.3462 -57.3682 -5
      vertex -72.8115 -52.9007 5
      vertex -72.8115 -52.9007 -5
    endloop
  endfacet
  facet normal -0.790159 -0.612902 0
    outer loop
      vertex -72.8115 -52.9007 5
      vertex -69.3462 -57.3682 -5
      vertex -69.3462 -57.3682 5
    endloop
  endfacet
  facet normal -0.278993 -0.960293 0
    outer loop
      vertex -27.8115 -85.5951 -5
      vertex -22.3821 -87.1725 5
      vertex -27.8115 -85.5951 5
    endloop
  endfacet
  facet normal -0.278993 -0.960293 -0
    outer loop
      vertex -22.3821 -87.1725 5
      vertex -27.8115 -85.5951 -5
      vertex -22.3821 -87.1725 -5
    endloop
  endfacet
  facet normal -0.707107 -0.707107 0
    outer loop
      vertex -61.6092 -65.6072 -5
      vertex -65.6072 -61.6092 5
      vertex -65.6072 -61.6092 -5
    endloop
  endfacet
  facet normal -0.707107 -0.707107 0
    outer loop
      vertex -65.6072 -61.6092 5
      vertex -61.6092 -65.6072 -5
      vertex -61.6092 -65.6072 5
    endloop
  endfacet
  facet normal 0 0 1
    outer loop
      vertex -5.33719 -84.8323 5
      vertex 0 -90 5
      vertex 0 -85 5
    endloop
  endfacet
  facet normal 0 0 1
    outer loop
      vertex -5.33719 -84.8323 5
      vertex -5.65115 -89.8224 5
      vertex 0 -90 5
    endloop
  endfacet
  facet normal 0 0 1
    outer loop
      vertex -10.6533 -84.3298 5
      vertex -5.65115 -89.8224 5
      vertex -5.33719 -84.8323 5
    endloop
  endfacet
  facet normal 0 0 1
    outer loop
      vertex -10.6533 -84.3298 5
      vertex -11.28 -89.2903 5
      vertex -5.65115 -89.8224 5
    endloop
  endfacet
  facet normal 0 0 1
    outer loop
      vertex -15.9274 -83.4944 5
      vertex -11.28 -89.2903 5
      vertex -10.6533 -84.3298 5
    endloop
  endfacet
  facet normal 0 0 1
    outer loop
      vertex -15.9274 -83.4944 5
      vertex -16.8643 -88.4059 5
      vertex -11.28 -89.2903 5
    endloop
  endfacet
  facet normal 0 0 1
    outer loop
      vertex -21.1386 -82.3296 5
      vertex -16.8643 -88.4059 5
      vertex -15.9274 -83.4944 5
    endloop
  endfacet
  facet normal 0 0 1
    outer loop
      vertex -21.1386 -82.3296 5
      vertex -22.3821 -87.1725 5
      vertex -16.8643 -88.4059 5
    endloop
  endfacet
  facet normal 0 0 1
    outer loop
      vertex -26.2664 -80.8398 5
      vertex -22.3821 -87.1725 5
      vertex -21.1386 -82.3296 5
    endloop
  endfacet
  facet normal 0 0 1
    outer loop
      vertex -26.2664 -80.8398 5
      vertex -27.8115 -85.5951 5
      vertex -22.3821 -87.1725 5
    endloop
  endfacet
  facet normal 0 0 1
    outer loop
      vertex -31.2906 -79.031 5
      vertex -27.8115 -85.5951 5
      vertex -26.2664 -80.8398 5
    endloop
  endfacet
  facet normal 0 0 1
    outer loop
      vertex -31.2906 -79.031 5
      vertex -33.1312 -83.6799 5
      vertex -27.8115 -85.5951 5
    endloop
  endfacet
  facet normal 0 0 1
    outer loop
      vertex -36.1912 -76.9103 5
      vertex -33.1312 -83.6799 5
      vertex -31.2906 -79.031 5
    endloop
  endfacet
  facet normal 0 0 1
    outer loop
      vertex -36.1912 -76.9103 5
      vertex -38.3201 -81.4344 5
      vertex -33.1312 -83.6799 5
    endloop
  endfacet
  facet normal 0 0 1
    outer loop
      vertex -40.9491 -74.4861 5
      vertex -38.3201 -81.4344 5
      vertex -36.1912 -76.9103 5
    endloop
  endfacet
  facet normal 0 0 1
    outer loop
      vertex -40.9491 -74.4861 5
      vertex -43.3578 -78.8676 5
      vertex -38.3201 -81.4344 5
    endloop
  endfacet
  facet normal 0 0 1
    outer loop
      vertex -45.5453 -71.7679 5
      vertex -43.3578 -78.8676 5
      vertex -40.9491 -74.4861 5
    endloop
  endfacet
  facet normal 0 0 1
    outer loop
      vertex -45.5453 -71.7679 5
      vertex -48.2244 -75.9895 5
      vertex -43.3578 -78.8676 5
    endloop
  endfacet
  facet normal 0 0 1
    outer loop
      vertex -49.9617 -68.7664 5
      vertex -48.2244 -75.9895 5
      vertex -45.5453 -71.7679 5
    endloop
  endfacet
  facet normal 0 0 1
    outer loop
      vertex -49.9617 -68.7664 5
      vertex -52.9007 -72.8115 5
      vertex -48.2244 -75.9895 5
    endloop
  endfacet
  facet normal 0 0 1
    outer loop
      vertex -54.181 -65.4936 5
      vertex -52.9007 -72.8115 5
      vertex -49.9617 -68.7664 5
    endloop
  endfacet
  facet normal 0 0 1
    outer loop
      vertex -54.181 -65.4936 5
      vertex -57.3682 -69.3462 5
      vertex -52.9007 -72.8115 5
    endloop
  endfacet
  facet normal 0 0 1
    outer loop
      vertex -58.1865 -61.9623 5
      vertex -57.3682 -69.3462 5
      vertex -54.181 -65.4936 5
    endloop
  endfacet
  facet normal 0 0 1
    outer loop
      vertex -58.1865 -61.9623 5
      vertex -61.6092 -65.6072 5
      vertex -57.3682 -69.3462 5
    endloop
  endfacet
  facet normal 0 0 1
    outer loop
      vertex -61.9623 -58.1865 5
      vertex -61.6092 -65.6072 5
      vertex -58.1865 -61.9623 5
    endloop
  endfacet
  facet normal 0 0 1
    outer loop
      vertex -65.6072 -61.6092 5
      vertex -61.9623 -58.1865 5
      vertex -65.4936 -54.181 5
    endloop
  endfacet
  facet normal 0 0 1
    outer loop
      vertex -61.9623 -58.1865 5
      vertex -65.6072 -61.6092 5
      vertex -61.6092 -65.6072 5
    endloop
  endfacet
  facet normal 0 0 1
    outer loop
      vertex -69.3462 -57.3682 5
      vertex -65.4936 -54.181 5
      vertex -68.7664 -49.9617 5
    endloop
  endfacet
  facet normal 0 0 1
    outer loop
      vertex -65.4936 -54.181 5
      vertex -69.3462 -57.3682 5
      vertex -65.6072 -61.6092 5
    endloop
  endfacet
  facet normal 0 0 1
    outer loop
      vertex -72.8115 -52.9007 5
      vertex -68.7664 -49.9617 5
      vertex -71.7679 -45.5453 5
    endloop
  endfacet
  facet normal 0 0 1
    outer loop
      vertex -68.7664 -49.9617 5
      vertex -72.8115 -52.9007 5
      vertex -69.3462 -57.3682 5
    endloop
  endfacet
  facet normal 0 0 1
    outer loop
      vertex -75.9895 -48.2244 5
      vertex -71.7679 -45.5453 5
      vertex -74.4861 -40.9491 5
    endloop
  endfacet
  facet normal 0 0 1
    outer loop
      vertex -71.7679 -45.5453 5
      vertex -75.9895 -48.2244 5
      vertex -72.8115 -52.9007 5
    endloop
  endfacet
  facet normal 0 0 1
    outer loop
      vertex -78.8676 -43.3578 5
      vertex -74.4861 -40.9491 5
      vertex -76.9103 -36.1912 5
    endloop
  endfacet
  facet normal 0 0 1
    outer loop
      vertex -74.4861 -40.9491 5
      vertex -78.8676 -43.3578 5
      vertex -75.9895 -48.2244 5
    endloop
  endfacet
  facet normal 0 0 1
    outer loop
      vertex -81.4344 -38.3201 5
      vertex -76.9103 -36.1912 5
      vertex -79.031 -31.2906 5
    endloop
  endfacet
  facet normal 0 0 1
    outer loop
      vertex -83.6799 -33.1312 5
      vertex -79.031 -31.2906 5
      vertex -80.8398 -26.2664 5
    endloop
  endfacet
  facet normal 0 0 1
    outer loop
      vertex -76.9103 -36.1912 5
      vertex -81.4344 -38.3201 5
      vertex -78.8676 -43.3578 5
    endloop
  endfacet
  facet normal 0 0 1
    outer loop
      vertex -85.5951 -27.8115 5
      vertex -80.8398 -26.2664 5
      vertex -82.3296 -21.1386 5
    endloop
  endfacet
  facet normal 0 0 1
    outer loop
      vertex -87.1725 -22.3821 5
      vertex -82.3296 -21.1386 5
      vertex -83.4944 -15.9274 5
    endloop
  endfacet
  facet normal 0 0 1
    outer loop
      vertex -79.031 -31.2906 5
      vertex -83.6799 -33.1312 5
      vertex -81.4344 -38.3201 5
    endloop
  endfacet
  facet normal 0 0 1
    outer loop
      vertex -88.4059 -16.8643 5
      vertex -83.4944 -15.9274 5
      vertex -84.3298 -10.6533 5
    endloop
  endfacet
  facet normal 0 0 1
    outer loop
      vertex -89.2903 -11.28 5
      vertex -84.3298 -10.6533 5
      vertex -84.8323 -5.33719 5
    endloop
  endfacet
  facet normal 0 0 1
    outer loop
      vertex -80.8398 -26.2664 5
      vertex -85.5951 -27.8115 5
      vertex -83.6799 -33.1312 5
    endloop
  endfacet
  facet normal 0 0 1
    outer loop
      vertex -89.8224 -5.65115 5
      vertex -84.8323 -5.33719 5
      vertex -85 0 5
    endloop
  endfacet
  facet normal 0 0 1
    outer loop
      vertex -82.3296 -21.1386 5
      vertex -87.1725 -22.3821 5
      vertex -85.5951 -27.8115 5
    endloop
  endfacet
  facet normal 0 0 1
    outer loop
      vertex -83.4944 -15.9274 5
      vertex -88.4059 -16.8643 5
      vertex -87.1725 -22.3821 5
    endloop
  endfacet
  facet normal 0 0 1
    outer loop
      vertex -84.3298 -10.6533 5
      vertex -89.2903 -11.28 5
      vertex -88.4059 -16.8643 5
    endloop
  endfacet
  facet normal 0 0 1
    outer loop
      vertex -84.8323 -5.33719 5
      vertex -89.8224 -5.65115 5
      vertex -89.2903 -11.28 5
    endloop
  endfacet
  facet normal 0 -0 1
    outer loop
      vertex -89.8224 -5.65115 5
      vertex -85 0 5
      vertex -90 0 5
    endloop
  endfacet
  facet normal -0.750106 -0.661317 0
    outer loop
      vertex -65.6072 -61.6092 -5
      vertex -69.3462 -57.3682 5
      vertex -69.3462 -57.3682 -5
    endloop
  endfacet
  facet normal -0.750106 -0.661317 0
    outer loop
      vertex -69.3462 -57.3682 5
      vertex -65.6072 -61.6092 -5
      vertex -65.6072 -61.6092 5
    endloop
  endfacet
  facet normal -0.917751 -0.397157 0
    outer loop
      vertex -81.4344 -38.3201 -5
      vertex -83.6799 -33.1312 5
      vertex -83.6799 -33.1312 -5
    endloop
  endfacet
  facet normal -0.917751 -0.397157 0
    outer loop
      vertex -83.6799 -33.1312 5
      vertex -81.4344 -38.3201 -5
      vertex -81.4344 -38.3201 5
    endloop
  endfacet
  facet normal -0.98769 -0.156423 0
    outer loop
      vertex -88.4059 -16.8643 -5
      vertex -89.2903 -11.28 5
      vertex -89.2903 -11.28 -5
    endloop
  endfacet
  facet normal -0.98769 -0.156423 0
    outer loop
      vertex -89.2903 -11.28 5
      vertex -88.4059 -16.8643 -5
      vertex -88.4059 -16.8643 5
    endloop
  endfacet
  facet normal -0.509042 -0.860742 0
    outer loop
      vertex -48.2244 -75.9895 -5
      vertex -43.3578 -78.8676 5
      vertex -48.2244 -75.9895 5
    endloop
  endfacet
  facet normal -0.509042 -0.860742 -0
    outer loop
      vertex -43.3578 -78.8676 5
      vertex -48.2244 -75.9895 -5
      vertex -43.3578 -78.8676 -5
    endloop
  endfacet
  facet normal -0.960293 -0.278993 0
    outer loop
      vertex -85.5951 -27.8115 -5
      vertex -87.1725 -22.3821 5
      vertex -87.1725 -22.3821 -5
    endloop
  endfacet
  facet normal -0.960293 -0.278993 0
    outer loop
      vertex -87.1725 -22.3821 5
      vertex -85.5951 -27.8115 -5
      vertex -85.5951 -27.8115 5
    endloop
  endfacet
  facet normal -0.661317 -0.750106 0
    outer loop
      vertex -61.6092 -65.6072 -5
      vertex -57.3682 -69.3462 5
      vertex -61.6092 -65.6072 5
    endloop
  endfacet
  facet normal -0.661317 -0.750106 -0
    outer loop
      vertex -57.3682 -69.3462 5
      vertex -61.6092 -65.6072 -5
      vertex -57.3682 -69.3462 -5
    endloop
  endfacet
  facet normal -0.453985 -0.891009 0
    outer loop
      vertex -43.3578 -78.8676 -5
      vertex -38.3201 -81.4344 5
      vertex -43.3578 -78.8676 5
    endloop
  endfacet
  facet normal -0.453985 -0.891009 -0
    outer loop
      vertex -38.3201 -81.4344 5
      vertex -43.3578 -78.8676 -5
      vertex -38.3201 -81.4344 -5
    endloop
  endfacet
  facet normal -0.612902 -0.790159 0
    outer loop
      vertex -57.3682 -69.3462 -5
      vertex -52.9007 -72.8115 5
      vertex -57.3682 -69.3462 5
    endloop
  endfacet
  facet normal -0.612902 -0.790159 -0
    outer loop
      vertex -52.9007 -72.8115 5
      vertex -57.3682 -69.3462 -5
      vertex -52.9007 -72.8115 -5
    endloop
  endfacet
  facet normal 0 0 -1
    outer loop
      vertex 0 -90 -5
      vertex -5.33719 -84.8323 -5
      vertex 0 -85 -5
    endloop
  endfacet
  facet normal 0 0 -1
    outer loop
      vertex -5.65115 -89.8224 -5
      vertex -5.33719 -84.8323 -5
      vertex 0 -90 -5
    endloop
  endfacet
  facet normal 0 0 -1
    outer loop
      vertex -5.65115 -89.8224 -5
      vertex -10.6533 -84.3298 -5
      vertex -5.33719 -84.8323 -5
    endloop
  endfacet
  facet normal 0 0 -1
    outer loop
      vertex -11.28 -89.2903 -5
      vertex -10.6533 -84.3298 -5
      vertex -5.65115 -89.8224 -5
    endloop
  endfacet
  facet normal 0 0 -1
    outer loop
      vertex -11.28 -89.2903 -5
      vertex -15.9274 -83.4944 -5
      vertex -10.6533 -84.3298 -5
    endloop
  endfacet
  facet normal 0 0 -1
    outer loop
      vertex -16.8643 -88.4059 -5
      vertex -15.9274 -83.4944 -5
      vertex -11.28 -89.2903 -5
    endloop
  endfacet
  facet normal 0 0 -1
    outer loop
      vertex -16.8643 -88.4059 -5
      vertex -21.1386 -82.3296 -5
      vertex -15.9274 -83.4944 -5
    endloop
  endfacet
  facet normal 0 0 -1
    outer loop
      vertex -22.3821 -87.1725 -5
      vertex -21.1386 -82.3296 -5
      vertex -16.8643 -88.4059 -5
    endloop
  endfacet
  facet normal 0 0 -1
    outer loop
      vertex -22.3821 -87.1725 -5
      vertex -26.2664 -80.8398 -5
      vertex -21.1386 -82.3296 -5
    endloop
  endfacet
  facet normal 0 0 -1
    outer loop
      vertex -27.8115 -85.5951 -5
      vertex -26.2664 -80.8398 -5
      vertex -22.3821 -87.1725 -5
    endloop
  endfacet
  facet normal 0 0 -1
    outer loop
      vertex -27.8115 -85.5951 -5
      vertex -31.2906 -79.031 -5
      vertex -26.2664 -80.8398 -5
    endloop
  endfacet
  facet normal 0 0 -1
    outer loop
      vertex -33.1312 -83.6799 -5
      vertex -31.2906 -79.031 -5
      vertex -27.8115 -85.5951 -5
    endloop
  endfacet
  facet normal 0 0 -1
    outer loop
      vertex -33.1312 -83.6799 -5
      vertex -36.1912 -76.9103 -5
      vertex -31.2906 -79.031 -5
    endloop
  endfacet
  facet normal 0 0 -1
    outer loop
      vertex -38.3201 -81.4344 -5
      vertex -36.1912 -76.9103 -5
      vertex -33.1312 -83.6799 -5
    endloop
  endfacet
  facet normal 0 0 -1
    outer loop
      vertex -38.3201 -81.4344 -5
      vertex -40.9491 -74.4861 -5
      vertex -36.1912 -76.9103 -5
    endloop
  endfacet
  facet normal 0 0 -1
    outer loop
      vertex -43.3578 -78.8676 -5
      vertex -40.9491 -74.4861 -5
      vertex -38.3201 -81.4344 -5
    endloop
  endfacet
  facet normal 0 0 -1
    outer loop
      vertex -43.3578 -78.8676 -5
      vertex -45.5453 -71.7679 -5
      vertex -40.9491 -74.4861 -5
    endloop
  endfacet
  facet normal 0 0 -1
    outer loop
      vertex -48.2244 -75.9895 -5
      vertex -45.5453 -71.7679 -5
      vertex -43.3578 -78.8676 -5
    endloop
  endfacet
  facet normal 0 0 -1
    outer loop
      vertex -48.2244 -75.9895 -5
      vertex -49.9617 -68.7664 -5
      vertex -45.5453 -71.7679 -5
    endloop
  endfacet
  facet normal 0 0 -1
    outer loop
      vertex -52.9007 -72.8115 -5
      vertex -49.9617 -68.7664 -5
      vertex -48.2244 -75.9895 -5
    endloop
  endfacet
  facet normal 0 0 -1
    outer loop
      vertex -52.9007 -72.8115 -5
      vertex -54.181 -65.4936 -5
      vertex -49.9617 -68.7664 -5
    endloop
  endfacet
  facet normal 0 0 -1
    outer loop
      vertex -57.3682 -69.3462 -5
      vertex -54.181 -65.4936 -5
      vertex -52.9007 -72.8115 -5
    endloop
  endfacet
  facet normal 0 0 -1
    outer loop
      vertex -57.3682 -69.3462 -5
      vertex -58.1865 -61.9623 -5
      vertex -54.181 -65.4936 -5
    endloop
  endfacet
  facet normal 0 0 -1
    outer loop
      vertex -61.6092 -65.6072 -5
      vertex -58.1865 -61.9623 -5
      vertex -57.3682 -69.3462 -5
    endloop
  endfacet
  facet normal 0 0 -1
    outer loop
      vertex -61.6092 -65.6072 -5
      vertex -61.9623 -58.1865 -5
      vertex -58.1865 -61.9623 -5
    endloop
  endfacet
  facet normal 0 0 -1
    outer loop
      vertex -65.6072 -61.6092 -5
      vertex -61.9623 -58.1865 -5
      vertex -61.6092 -65.6072 -5
    endloop
  endfacet
  facet normal -0 0 -1
    outer loop
      vertex -61.9623 -58.1865 -5
      vertex -65.6072 -61.6092 -5
      vertex -65.4936 -54.181 -5
    endloop
  endfacet
  facet normal 0 0 -1
    outer loop
      vertex -69.3462 -57.3682 -5
      vertex -65.4936 -54.181 -5
      vertex -65.6072 -61.6092 -5
    endloop
  endfacet
  facet normal -0 0 -1
    outer loop
      vertex -65.4936 -54.181 -5
      vertex -69.3462 -57.3682 -5
      vertex -68.7664 -49.9617 -5
    endloop
  endfacet
  facet normal 0 0 -1
    outer loop
      vertex -72.8115 -52.9007 -5
      vertex -68.7664 -49.9617 -5
      vertex -69.3462 -57.3682 -5
    endloop
  endfacet
  facet normal -0 0 -1
    outer loop
      vertex -68.7664 -49.9617 -5
      vertex -72.8115 -52.9007 -5
      vertex -71.7679 -45.5453 -5
    endloop
  endfacet
  facet normal 0 0 -1
    outer loop
      vertex -75.9895 -48.2244 -5
      vertex -71.7679 -45.5453 -5
      vertex -72.8115 -52.9007 -5
    endloop
  endfacet
  facet normal -0 0 -1
    outer loop
      vertex -71.7679 -45.5453 -5
      vertex -75.9895 -48.2244 -5
      vertex -74.4861 -40.9491 -5
    endloop
  endfacet
  facet normal 0 0 -1
    outer loop
      vertex -78.8676 -43.3578 -5
      vertex -74.4861 -40.9491 -5
      vertex -75.9895 -48.2244 -5
    endloop
  endfacet
  facet normal -0 0 -1
    outer loop
      vertex -74.4861 -40.9491 -5
      vertex -78.8676 -43.3578 -5
      vertex -76.9103 -36.1912 -5
    endloop
  endfacet
  facet normal 0 0 -1
    outer loop
      vertex -81.4344 -38.3201 -5
      vertex -76.9103 -36.1912 -5
      vertex -78.8676 -43.3578 -5
    endloop
  endfacet
  facet normal -0 0 -1
    outer loop
      vertex -76.9103 -36.1912 -5
      vertex -81.4344 -38.3201 -5
      vertex -79.031 -31.2906 -5
    endloop
  endfacet
  facet normal 0 0 -1
    outer loop
      vertex -83.6799 -33.1312 -5
      vertex -79.031 -31.2906 -5
      vertex -81.4344 -38.3201 -5
    endloop
  endfacet
  facet normal -0 0 -1
    outer loop
      vertex -79.031 -31.2906 -5
      vertex -83.6799 -33.1312 -5
      vertex -80.8398 -26.2664 -5
    endloop
  endfacet
  facet normal 0 0 -1
    outer loop
      vertex -85.5951 -27.8115 -5
      vertex -80.8398 -26.2664 -5
      vertex -83.6799 -33.1312 -5
    endloop
  endfacet
  facet normal -0 0 -1
    outer loop
      vertex -80.8398 -26.2664 -5
      vertex -85.5951 -27.8115 -5
      vertex -82.3296 -21.1386 -5
    endloop
  endfacet
  facet normal 0 0 -1
    outer loop
      vertex -87.1725 -22.3821 -5
      vertex -82.3296 -21.1386 -5
      vertex -85.5951 -27.8115 -5
    endloop
  endfacet
  facet normal -0 0 -1
    outer loop
      vertex -82.3296 -21.1386 -5
      vertex -87.1725 -22.3821 -5
      vertex -83.4944 -15.9274 -5
    endloop
  endfacet
  facet normal 0 0 -1
    outer loop
      vertex -88.4059 -16.8643 -5
      vertex -83.4944 -15.9274 -5
      vertex -87.1725 -22.3821 -5
    endloop
  endfacet
  facet normal -0 0 -1
    outer loop
      vertex -83.4944 -15.9274 -5
      vertex -88.4059 -16.8643 -5
      vertex -84.3298 -10.6533 -5
    endloop
  endfacet
  facet normal 0 0 -1
    outer loop
      vertex -89.2903 -11.28 -5
      vertex -84.3298 -10.6533 -5
      vertex -88.4059 -16.8643 -5
    endloop
  endfacet
  facet normal -0 0 -1
    outer loop
      vertex -84.3298 -10.6533 -5
      vertex -89.2903 -11.28 -5
      vertex -84.8323 -5.33719 -5
    endloop
  endfacet
  facet normal 0 0 -1
    outer loop
      vertex -89.8224 -5.65115 -5
      vertex -84.8323 -5.33719 -5
      vertex -89.2903 -11.28 -5
    endloop
  endfacet
  facet normal -0 0 -1
    outer loop
      vertex -84.8323 -5.33719 -5
      vertex -89.8224 -5.65115 -5
      vertex -85 0 -5
    endloop
  endfacet
  facet normal -0 0 -1
    outer loop
      vertex -85 0 -5
      vertex -89.8224 -5.65115 -5
      vertex -90 0 -5
    endloop
  endfacet
  facet normal -0.218148 -0.975916 0
    outer loop
      vertex -22.3821 -87.1725 -5
      vertex -16.8643 -88.4059 5
      vertex -22.3821 -87.1725 5
    endloop
  endfacet
  facet normal -0.218148 -0.975916 -0
    outer loop
      vertex -16.8643 -88.4059 5
      vertex -22.3821 -87.1725 -5
      vertex -16.8643 -88.4059 -5
    endloop
  endfacet
  facet normal -0.0941113 -0.995562 0
    outer loop
      vertex -11.28 -89.2903 -5
      vertex -5.65115 -89.8224 5
      vertex -11.28 -89.2903 5
    endloop
  endfacet
  facet normal -0.0941113 -0.995562 -0
    outer loop
      vertex -5.65115 -89.8224 5
      vertex -11.28 -89.2903 -5
      vertex -5.65115 -89.8224 -5
    endloop
  endfacet
  facet normal -0.860742 -0.509042 0
    outer loop
      vertex -75.9895 -48.2244 -5
      vertex -78.8676 -43.3578 5
      vertex -78.8676 -43.3578 -5
    endloop
  endfacet
  facet normal -0.860742 -0.509042 0
    outer loop
      vertex -78.8676 -43.3578 5
      vertex -75.9895 -48.2244 -5
      vertex -75.9895 -48.2244 5
    endloop
  endfacet
  facet normal -0.397157 -0.917751 0
    outer loop
      vertex -38.3201 -81.4344 -5
      vertex -33.1312 -83.6799 5
      vertex -38.3201 -81.4344 5
    endloop
  endfacet
  facet normal -0.397157 -0.917751 -0
    outer loop
      vertex -33.1312 -83.6799 5
      vertex -38.3201 -81.4344 -5
      vertex -33.1312 -83.6799 -5
    endloop
  endfacet
  facet normal 0.750113 0.661309 0
    outer loop
      vertex -61.9623 -58.1865 5
      vertex -65.4936 -54.181 -5
      vertex -65.4936 -54.181 5
    endloop
  endfacet
  facet normal 0.750113 0.661309 0
    outer loop
      vertex -65.4936 -54.181 -5
      vertex -61.9623 -58.1865 5
      vertex -61.9623 -58.1865 -5
    endloop
  endfacet
  facet normal 0.0941045 0.995562 -0
    outer loop
      vertex -5.33719 -84.8323 -5
      vertex -10.6533 -84.3298 5
      vertex -5.33719 -84.8323 5
    endloop
  endfacet
  facet normal 0.0941045 0.995562 0
    outer loop
      vertex -10.6533 -84.3298 5
      vertex -5.33719 -84.8323 -5
      vertex -10.6533 -84.3298 -5
    endloop
  endfacet
  facet normal 0.917753 0.397151 0
    outer loop
      vertex -76.9103 -36.1912 5
      vertex -79.031 -31.2906 -5
      vertex -79.031 -31.2906 5
    endloop
  endfacet
  facet normal 0.917753 0.397151 0
    outer loop
      vertex -79.031 -31.2906 -5
      vertex -76.9103 -36.1912 5
      vertex -76.9103 -36.1912 -5
    endloop
  endfacet
  facet normal 0.960292 0.278997 0
    outer loop
      vertex -80.8398 -26.2664 5
      vertex -82.3296 -21.1386 -5
      vertex -82.3296 -21.1386 5
    endloop
  endfacet
  facet normal 0.960292 0.278997 0
    outer loop
      vertex -82.3296 -21.1386 -5
      vertex -80.8398 -26.2664 5
      vertex -80.8398 -26.2664 -5
    endloop
  endfacet
  facet normal 0.45398 0.891012 -0
    outer loop
      vertex -36.1912 -76.9103 -5
      vertex -40.9491 -74.4861 5
      vertex -36.1912 -76.9103 5
    endloop
  endfacet
  facet normal 0.45398 0.891012 0
    outer loop
      vertex -40.9491 -74.4861 5
      vertex -36.1912 -76.9103 -5
      vertex -40.9491 -74.4861 -5
    endloop
  endfacet
  facet normal 0.940882 0.338734 0
    outer loop
      vertex -79.031 -31.2906 5
      vertex -80.8398 -26.2664 -5
      vertex -80.8398 -26.2664 5
    endloop
  endfacet
  facet normal 0.940882 0.338734 0
    outer loop
      vertex -80.8398 -26.2664 -5
      vertex -79.031 -31.2906 5
      vertex -79.031 -31.2906 -5
    endloop
  endfacet
  facet normal 0.661309 0.750113 -0
    outer loop
      vertex -54.181 -65.4936 -5
      vertex -58.1865 -61.9623 5
      vertex -54.181 -65.4936 5
    endloop
  endfacet
  facet normal 0.661309 0.750113 0
    outer loop
      vertex -58.1865 -61.9623 5
      vertex -54.181 -65.4936 -5
      vertex -58.1865 -61.9623 -5
    endloop
  endfacet
  facet normal 0.987686 0.156446 0
    outer loop
      vertex -83.4944 -15.9274 5
      vertex -84.3298 -10.6533 -5
      vertex -84.3298 -10.6533 5
    endloop
  endfacet
  facet normal 0.987686 0.156446 0
    outer loop
      vertex -84.3298 -10.6533 -5
      vertex -83.4944 -15.9274 5
      vertex -83.4944 -15.9274 -5
    endloop
  endfacet
  facet normal 0.975918 0.218136 0
    outer loop
      vertex -82.3296 -21.1386 5
      vertex -83.4944 -15.9274 -5
      vertex -83.4944 -15.9274 5
    endloop
  endfacet
  facet normal 0.975918 0.218136 0
    outer loop
      vertex -83.4944 -15.9274 -5
      vertex -82.3296 -21.1386 5
      vertex -82.3296 -21.1386 -5
    endloop
  endfacet
  facet normal 0.860741 0.509043 0
    outer loop
      vertex -71.7679 -45.5453 5
      vertex -74.4861 -40.9491 -5
      vertex -74.4861 -40.9491 5
    endloop
  endfacet
  facet normal 0.860741 0.509043 0
    outer loop
      vertex -74.4861 -40.9491 -5
      vertex -71.7679 -45.5453 5
      vertex -71.7679 -45.5453 -5
    endloop
  endfacet
  facet normal 0.82707 0.562098 0
    outer loop
      vertex -68.7664 -49.9617 5
      vertex -71.7679 -45.5453 -5
      vertex -71.7679 -45.5453 5
    endloop
  endfacet
  facet normal 0.82707 0.562098 0
    outer loop
      vertex -71.7679 -45.5453 -5
      vertex -68.7664 -49.9617 5
      vertex -68.7664 -49.9617 -5
    endloop
  endfacet
  facet normal 0.0314055 0.999507 -0
    outer loop
      vertex 0 -85 -5
      vertex -5.33719 -84.8323 5
      vertex 0 -85 5
    endloop
  endfacet
  facet normal 0.0314055 0.999507 0
    outer loop
      vertex -5.33719 -84.8323 5
      vertex 0 -85 -5
      vertex -5.33719 -84.8323 -5
    endloop
  endfacet
  facet normal 0.995562 0.0941045 0
    outer loop
      vertex -84.3298 -10.6533 5
      vertex -84.8323 -5.33719 -5
      vertex -84.8323 -5.33719 5
    endloop
  endfacet
  facet normal 0.995562 0.0941045 0
    outer loop
      vertex -84.8323 -5.33719 -5
      vertex -84.3298 -10.6533 5
      vertex -84.3298 -10.6533 -5
    endloop
  endfacet
  facet normal 0.999507 0.0314055 0
    outer loop
      vertex -84.8323 -5.33719 5
      vertex -85 0 -5
      vertex -85 0 5
    endloop
  endfacet
  facet normal 0.999507 0.0314055 0
    outer loop
      vertex -85 0 -5
      vertex -84.8323 -5.33719 5
      vertex -84.8323 -5.33719 -5
    endloop
  endfacet
  facet normal 0.562098 0.82707 -0
    outer loop
      vertex -45.5453 -71.7679 -5
      vertex -49.9617 -68.7664 5
      vertex -45.5453 -71.7679 5
    endloop
  endfacet
  facet normal 0.562098 0.82707 0
    outer loop
      vertex -49.9617 -68.7664 5
      vertex -45.5453 -71.7679 -5
      vertex -49.9617 -68.7664 -5
    endloop
  endfacet
  facet normal 0.338734 0.940882 -0
    outer loop
      vertex -26.2664 -80.8398 -5
      vertex -31.2906 -79.031 5
      vertex -26.2664 -80.8398 5
    endloop
  endfacet
  facet normal 0.338734 0.940882 0
    outer loop
      vertex -31.2906 -79.031 5
      vertex -26.2664 -80.8398 -5
      vertex -31.2906 -79.031 -5
    endloop
  endfacet
  facet normal 0.509043 0.860741 -0
    outer loop
      vertex -40.9491 -74.4861 -5
      vertex -45.5453 -71.7679 5
      vertex -40.9491 -74.4861 5
    endloop
  endfacet
  facet normal 0.509043 0.860741 0
    outer loop
      vertex -45.5453 -71.7679 5
      vertex -40.9491 -74.4861 -5
      vertex -45.5453 -71.7679 -5
    endloop
  endfacet
  facet normal 0.707107 0.707107 0
    outer loop
      vertex -58.1865 -61.9623 5
      vertex -61.9623 -58.1865 -5
      vertex -61.9623 -58.1865 5
    endloop
  endfacet
  facet normal 0.707107 0.707107 0
    outer loop
      vertex -61.9623 -58.1865 -5
      vertex -58.1865 -61.9623 5
      vertex -58.1865 -61.9623 -5
    endloop
  endfacet
  facet normal 0.790157 0.612904 0
    outer loop
      vertex -65.4936 -54.181 5
      vertex -68.7664 -49.9617 -5
      vertex -68.7664 -49.9617 5
    endloop
  endfacet
  facet normal 0.790157 0.612904 0
    outer loop
      vertex -68.7664 -49.9617 -5
      vertex -65.4936 -54.181 5
      vertex -65.4936 -54.181 -5
    endloop
  endfacet
  facet normal 0.218136 0.975918 -0
    outer loop
      vertex -15.9274 -83.4944 -5
      vertex -21.1386 -82.3296 5
      vertex -15.9274 -83.4944 5
    endloop
  endfacet
  facet normal 0.218136 0.975918 0
    outer loop
      vertex -21.1386 -82.3296 5
      vertex -15.9274 -83.4944 -5
      vertex -21.1386 -82.3296 -5
    endloop
  endfacet
  facet normal 0.156446 0.987686 -0
    outer loop
      vertex -10.6533 -84.3298 -5
      vertex -15.9274 -83.4944 5
      vertex -10.6533 -84.3298 5
    endloop
  endfacet
  facet normal 0.156446 0.987686 0
    outer loop
      vertex -15.9274 -83.4944 5
      vertex -10.6533 -84.3298 -5
      vertex -15.9274 -83.4944 -5
    endloop
  endfacet
  facet normal 0.278997 0.960292 -0
    outer loop
      vertex -21.1386 -82.3296 -5
      vertex -26.2664 -80.8398 5
      vertex -21.1386 -82.3296 5
    endloop
  endfacet
  facet normal 0.278997 0.960292 0
    outer loop
      vertex -26.2664 -80.8398 5
      vertex -21.1386 -82.3296 -5
      vertex -26.2664 -80.8398 -5
    endloop
  endfacet
  facet normal 0.397151 0.917753 -0
    outer loop
      vertex -31.2906 -79.031 -5
      vertex -36.1912 -76.9103 5
      vertex -31.2906 -79.031 5
    endloop
  endfacet
  facet normal 0.397151 0.917753 0
    outer loop
      vertex -36.1912 -76.9103 5
      vertex -31.2906 -79.031 -5
      vertex -36.1912 -76.9103 -5
    endloop
  endfacet
  facet normal 0.891012 0.45398 0
    outer loop
      vertex -74.4861 -40.9491 5
      vertex -76.9103 -36.1912 -5
      vertex -76.9103 -36.1912 5
    endloop
  endfacet
  facet normal 0.891012 0.45398 0
    outer loop
      vertex -76.9103 -36.1912 -5
      vertex -74.4861 -40.9491 5
      vertex -74.4861 -40.9491 -5
    endloop
  endfacet
  facet normal 0.612904 0.790157 -0
    outer loop
      vertex -49.9617 -68.7664 -5
      vertex -54.181 -65.4936 5
      vertex -49.9617 -68.7664 5
    endloop
  endfacet
  facet normal 0.612904 0.790157 0
    outer loop
      vertex -54.181 -65.4936 5
      vertex -49.9617 -68.7664 -5
      vertex -54.181 -65.4936 -5
    endloop
  endfacet
  facet normal 0 1 -0
    outer loop
      vertex -85 0 -5
      vertex -90 0 5
      vertex -85 0 5
    endloop
  endfacet
  facet normal 0 1 0
    outer loop
      vertex -90 0 5
      vertex -85 0 -5
      vertex -90 0 -5
    endloop
  endfacet
  facet normal 1 -0 0
    outer loop
      vertex 0 -90 5
      vertex 0 -85 -5
      vertex 0 -85 5
    endloop
  endfacet
  facet normal 1 0 0
    outer loop
      vertex 0 -85 -5
      vertex 0 -90 5
      vertex 0 -90 -5
    endloop
  endfacet
endsolid OpenSCAD_Model
